<svg xmlns="http://www.w3.org/2000/svg" version="1.1" xmlns:xlink="http://www.w3.org/1999/xlink" xmlns:svgjs="http://svgjs.dev/svgjs" width="1500" height="791" viewBox="0 0 1500 791"><g transform="matrix(1,0,0,1,-0.9090909090909918,-0.9445993336426568)"><svg viewBox="0 0 396 209" data-background-color="#f8f493" preserveAspectRatio="xMidYMid meet" height="791" width="1500" xmlns="http://www.w3.org/2000/svg" xmlns:xlink="http://www.w3.org/1999/xlink"><g id="tight-bounds" transform="matrix(1,0,0,1,0.2400000000000091,0.2495844004188541)"><svg viewBox="0 0 395.52 208.5008311991623" height="208.5008311991623" width="395.52"><g><svg viewBox="0 0 395.52 208.5008311991623" height="208.5008311991623" width="395.52"><g transform="matrix(1,0,0,1,0,128.86187831958114)"><svg viewBox="0 0 395.52 79.63895287958115" height="79.63895287958115" width="395.52"><g id="textblocktransform"><svg viewBox="0 0 395.52 79.63895287958115" height="79.63895287958115" width="395.52" id="textblock"><g><svg viewBox="0 0 395.52 79.63895287958115" height="79.63895287958115" width="395.52"><g transform="matrix(1,0,0,1,0,0)"><svg width="395.52" viewBox="2.25 -32.35 229.18 46.150000000000006" height="79.63895287958115" data-palette-color="#72693e"><path d="M14.05 0.65L14.05 0.65Q10.5 0.65 7.83-0.95 5.15-2.55 3.7-5.5 2.25-8.45 2.25-12.5L2.25-12.5Q2.25-16.35 3.5-19.9 4.75-23.45 7.1-26.25 9.45-29.05 12.75-30.7 16.05-32.35 20.2-32.35L20.2-32.35Q23.3-32.35 25.3-31.4 27.3-30.45 27.3-28.6L27.3-28.6Q27.3-27.7 26.83-26.83 26.35-25.95 25.6-25.35 24.85-24.75 24.05-24.75L24.05-24.75Q23.55-24.75 23.25-25L23.25-25Q21.9-25.9 20.6-26.33 19.3-26.75 17.6-26.75L17.6-26.75Q14.05-26.75 11.6-25.13 9.15-23.5 7.88-20.85 6.6-18.2 6.6-15.1L6.6-15.1Q6.6-12.1 7.75-9.8 8.9-7.5 10.95-6.2 13-4.9 15.75-4.9L15.75-4.9Q17.95-4.9 20.03-5.78 22.1-6.65 23.7-8.2L23.7-8.2Q24.4-8.85 25.1-8.85L25.1-8.85Q25.7-8.85 25.95-8.35 26.2-7.85 26.2-7.35L26.2-7.35Q26.2-6.5 25.7-5.43 25.2-4.35 24.15-3.3L24.15-3.3Q22.3-1.45 19.6-0.4 16.9 0.65 14.05 0.65ZM35.6 0.65L35.6 0.65Q32.6 0.65 30.77-1.23 28.95-3.1 28.95-6.6L28.95-6.6Q28.95-9.1 29.92-11.58 30.9-14.05 32.75-16.05 34.6-18.05 37.2-19.25 39.8-20.45 43.05-20.45L43.05-20.45Q46.05-20.45 48.17-19.43 50.3-18.4 50.3-16.65L50.3-16.65Q50.3-16.2 50.2-15.48 50.1-14.75 49.95-14.3L49.95-14.3Q49.8-13.9 49.52-13.58 49.25-13.25 48.8-13.25L48.8-13.25Q48.6-13.25 48.05-13.4L48.05-13.4Q47.85-12.35 47.75-11.35 47.65-10.35 47.65-9.35L47.65-9.35Q47.65-7.45 48.22-5.98 48.8-4.5 50.5-4.15L50.5-4.15Q50.95-4.05 51.22-3.85 51.5-3.65 51.5-3L51.5-3Q51.5-2.45 51.22-1.6 50.95-0.75 50.17-0.08 49.4 0.6 47.95 0.6L47.95 0.6Q46 0.6 44.95-0.83 43.9-2.25 43.9-4.9L43.9-4.9Q42.55-2.45 40.47-0.9 38.4 0.65 35.6 0.65ZM37.2-4.55L37.2-4.55Q39.2-4.55 40.72-5.8 42.25-7.05 43.1-8.95L43.1-8.95Q43.65-10.15 43.95-11.58 44.25-13 44.35-14.4L44.35-14.4Q43.5-14.8 42.4-15.05 41.3-15.3 40.1-15.3L40.1-15.3Q37.05-15.3 35.07-13.5 33.1-11.7 33.1-9L33.1-9Q33.1-7 34.2-5.78 35.3-4.55 37.2-4.55ZM57.6 0.55L57.6 0.55Q56.8 0.55 56.32 0.28 55.85 0 56-0.65L56-0.65Q56.55-2.8 56.92-5.03 57.3-7.25 57.3-9.3L57.3-9.3Q57.3-11.95 56.97-13.18 56.65-14.4 56.1-14.88 55.55-15.35 54.75-15.6L54.75-15.6Q54.4-15.75 54.12-16 53.85-16.25 53.85-16.7L53.85-16.7Q53.85-17.4 54.4-18.25 54.95-19.1 55.95-19.73 56.95-20.35 58.25-20.35L58.25-20.35Q59.95-20.35 60.62-19.18 61.3-18 61.3-16.1L61.3-16.1Q62.2-18.1 63.52-19.28 64.85-20.45 66.85-20.45L66.85-20.45Q68.2-20.45 69.1-19.85 70-19.25 70-17.9L70-17.9Q70-16.55 69.12-15.38 68.25-14.2 67.35-14.2L67.35-14.2Q67.2-14.2 67-14.25 66.8-14.3 66.65-14.5L66.65-14.5Q66-15.3 65.05-15.3L65.05-15.3Q63.6-15.3 62.5-13.4 61.4-11.5 61.3-8.15L61.3-8.15Q61.35-6.9 61.37-5.6 61.4-4.3 61.4-3.7L61.4-3.7Q61.4-1.85 60.37-0.65 59.35 0.55 57.6 0.55ZM78.44 0.65L78.44 0.65Q74.64 0.65 72.52-1.53 70.39-3.7 70.39-7.6L70.39-7.6Q70.39-11.15 71.94-14.05 73.49-16.95 76.12-18.68 78.74-20.4 81.89-20.4L81.89-20.4Q84.89-20.4 86.69-18.93 88.49-17.45 88.49-15L88.49-15Q88.49-13.05 87.29-11.4 86.09-9.75 84.09-8.78 82.09-7.8 79.64-7.8L79.64-7.8Q76.64-7.8 74.74-9.15L74.74-9.15Q74.79-6.85 76.32-5.45 77.84-4.05 80.24-4.05L80.24-4.05Q81.69-4.05 83.22-4.58 84.74-5.1 85.84-6L85.84-6Q86.54-6.6 87.14-6.6L87.14-6.6Q87.64-6.6 87.97-6.28 88.29-5.95 88.29-5.45L88.29-5.45Q88.29-4.35 86.39-2.55L86.39-2.55Q83.04 0.65 78.44 0.65ZM79.19-11.1L79.19-11.1Q80.99-11.1 82.19-11.85 83.39-12.6 83.39-13.75L83.39-13.75Q83.39-14.7 82.59-15.23 81.79-15.75 80.39-15.75L80.39-15.75Q78.54-15.75 77.17-14.78 75.79-13.8 75.19-12.05L75.19-12.05Q75.89-11.6 76.99-11.35 78.09-11.1 79.19-11.1ZM99.99 0.65L99.99 0.65Q96.19 0.65 94.07-1.53 91.94-3.7 91.94-7.6L91.94-7.6Q91.94-11.15 93.49-14.05 95.04-16.95 97.67-18.68 100.29-20.4 103.44-20.4L103.44-20.4Q106.44-20.4 108.24-18.93 110.04-17.45 110.04-15L110.04-15Q110.04-13.05 108.84-11.4 107.64-9.75 105.64-8.78 103.64-7.8 101.19-7.8L101.19-7.8Q98.19-7.8 96.29-9.15L96.29-9.15Q96.34-6.85 97.87-5.45 99.39-4.05 101.79-4.05L101.79-4.05Q103.24-4.05 104.77-4.58 106.29-5.1 107.39-6L107.39-6Q108.09-6.6 108.69-6.6L108.69-6.6Q109.19-6.6 109.52-6.28 109.84-5.95 109.84-5.45L109.84-5.45Q109.84-4.35 107.94-2.55L107.94-2.55Q104.59 0.65 99.99 0.65ZM100.74-11.1L100.74-11.1Q102.54-11.1 103.74-11.85 104.94-12.6 104.94-13.75L104.94-13.75Q104.94-14.7 104.14-15.23 103.34-15.75 101.94-15.75L101.94-15.75Q100.09-15.75 98.72-14.78 97.34-13.8 96.74-12.05L96.74-12.05Q97.44-11.6 98.54-11.35 99.64-11.1 100.74-11.1ZM116.89 0.55L116.89 0.55Q116.09 0.55 115.61 0.28 115.14 0 115.29-0.65L115.29-0.65Q115.84-2.8 116.21-5.03 116.59-7.25 116.59-9.3L116.59-9.3Q116.59-11.95 116.26-13.18 115.94-14.4 115.39-14.88 114.84-15.35 114.04-15.6L114.04-15.6Q113.69-15.75 113.41-16 113.14-16.25 113.14-16.7L113.14-16.7Q113.14-17.4 113.69-18.25 114.24-19.1 115.24-19.73 116.24-20.35 117.54-20.35L117.54-20.35Q119.24-20.35 119.91-19.18 120.59-18 120.59-16.1L120.59-16.1Q121.49-18.1 122.81-19.28 124.14-20.45 126.14-20.45L126.14-20.45Q127.49-20.45 128.39-19.85 129.29-19.25 129.29-17.9L129.29-17.9Q129.29-16.55 128.41-15.38 127.54-14.2 126.64-14.2L126.64-14.2Q126.49-14.2 126.29-14.25 126.09-14.3 125.94-14.5L125.94-14.5Q125.29-15.3 124.34-15.3L124.34-15.3Q122.89-15.3 121.79-13.4 120.69-11.5 120.59-8.15L120.59-8.15Q120.64-6.9 120.66-5.6 120.69-4.3 120.69-3.7L120.69-3.7Q120.69-1.85 119.66-0.65 118.64 0.55 116.89 0.55ZM134.63 0.5L134.63 0.5Q134.03 0.5 133.41 0.3 132.78 0.1 132.36-0.65 131.94-1.4 131.94-2.95L131.94-2.95Q131.94-3.95 132.13-5.58 132.34-7.2 132.69-9.8L132.69-9.8Q132.94-11.45 133.26-14.23 133.59-17 133.59-20.05L133.59-20.05Q133.59-21.4 133.49-22.93 133.38-24.45 133.09-25.7L133.09-25.7Q132.49-25.55 132.19-25.55L132.19-25.55Q131.88-25.55 131.74-25.73 131.59-25.9 131.59-26.4L131.59-26.4Q131.59-27.4 131.81-28.43 132.03-29.45 132.53-30.15L132.53-30.15Q133.03-30.85 133.71-31.15 134.38-31.45 135.13-31.55L135.13-31.55Q136.38-31.7 138.31-31.83 140.24-31.95 142.36-32.05 144.49-32.15 146.24-32.15L146.24-32.15Q148.59-32.15 149.71-32.1 150.84-32.05 151.44-31.95L151.44-31.95Q152.74-31.75 152.74-30.55L152.74-30.55Q152.74-29.7 152.41-29.03 152.09-28.35 151.63-27.8L151.63-27.8Q151.09-27 150.46-26.68 149.84-26.35 148.84-26.45L148.84-26.45Q147.99-26.55 146.51-26.63 145.03-26.7 143.13-26.7L143.13-26.7Q142.34-26.7 141.03-26.65 139.74-26.6 138.28-26.5L138.28-26.5Q138.24-24.8 137.99-22.63 137.74-20.45 137.44-18.2L137.44-18.2Q138.78-18.3 140.69-18.38 142.59-18.45 144.59-18.5 146.59-18.55 148.13-18.55L148.13-18.55Q149.03-18.55 149.44-18.32 149.84-18.1 149.84-17.35L149.84-17.35Q149.84-16.5 149.41-15.53 148.99-14.55 148.31-13.85 147.63-13.15 146.88-13.2L146.88-13.2Q145.63-13.3 143.36-13.35 141.09-13.4 138.59-13.4L138.59-13.4 136.99-13.4Q136.88-12.3 136.81-11.23 136.74-10.15 136.74-9.25L136.74-9.25Q136.74-7.5 137.09-6.18 137.44-4.85 138.44-3.9L138.44-3.9Q139.09-3.25 139.09-2.4L139.09-2.4Q139.09-1.3 137.84-0.4 136.59 0.5 134.63 0.5ZM159.98 0.65L159.98 0.65Q156.53 0.65 154.46-1.23 152.38-3.1 152.38-6.75L152.38-6.75Q152.38-8.45 152.86-10.05 153.33-11.65 154.13-13.05L154.13-13.05Q153.33-12.55 152.93-12.55L152.93-12.55Q152.33-12.55 152.11-13.23 151.88-13.9 151.88-14.55L151.88-14.55Q151.88-15.7 152.36-16.38 152.83-17.05 153.28-17.4L153.28-17.4Q154.33-18.3 156.58-19.38 158.83-20.45 161.98-20.45L161.98-20.45Q166.28-20.45 168.66-18.05 171.03-15.65 171.03-11.35L171.03-11.35Q171.03-8 169.63-5.28 168.23-2.55 165.76-0.95 163.28 0.65 159.98 0.65ZM161.53-4.45L161.53-4.45Q164.03-4.45 165.76-6.03 167.48-7.6 167.48-10.2L167.48-10.2Q167.48-12.9 165.73-14.05 163.98-15.2 161.68-15.2L161.68-15.2Q160.63-15.2 159.78-15 158.93-14.8 158.18-14.5L158.18-14.5Q157.48-13.5 156.93-12.25 156.38-11 156.38-9.5L156.38-9.5Q156.38-7 157.88-5.73 159.38-4.45 161.53-4.45ZM177.88 0.55L177.88 0.55Q177.08 0.55 176.61 0.28 176.13 0 176.28-0.65L176.28-0.65Q176.83-2.8 177.21-5.03 177.58-7.25 177.58-9.3L177.58-9.3Q177.58-11.95 177.26-13.18 176.93-14.4 176.38-14.88 175.83-15.35 175.03-15.6L175.03-15.6Q174.68-15.75 174.41-16 174.13-16.25 174.13-16.7L174.13-16.7Q174.13-17.4 174.68-18.25 175.23-19.1 176.23-19.73 177.23-20.35 178.53-20.35L178.53-20.35Q180.23-20.35 180.91-19.18 181.58-18 181.58-16.1L181.58-16.1Q182.48-18.1 183.81-19.28 185.13-20.45 187.13-20.45L187.13-20.45Q188.48-20.45 189.38-19.85 190.28-19.25 190.28-17.9L190.28-17.9Q190.28-16.55 189.41-15.38 188.53-14.2 187.63-14.2L187.63-14.2Q187.48-14.2 187.28-14.25 187.08-14.3 186.93-14.5L186.93-14.5Q186.28-15.3 185.33-15.3L185.33-15.3Q183.88-15.3 182.78-13.4 181.68-11.5 181.58-8.15L181.58-8.15Q181.63-6.9 181.66-5.6 181.68-4.3 181.68-3.7L181.68-3.7Q181.68-1.85 180.66-0.65 179.63 0.55 177.88 0.55ZM197.78 13.8L197.78 13.8Q194.03 13.8 191.83 12.25 189.63 10.7 189.63 8.25L189.63 8.25Q189.63 6.45 190.75 5.05 191.88 3.65 193.73 3.65L193.73 3.65Q194.78 3.65 194.78 4.25L194.78 4.25Q194.78 4.6 194.65 5.05 194.53 5.5 194.53 5.95L194.53 5.95Q194.53 7.35 196.13 8.03 197.73 8.7 199.98 8.7L199.98 8.7Q201.38 8.7 202.83 8.4 204.28 8.1 205.25 7.48 206.23 6.85 206.23 5.8L206.23 5.8Q206.23 4.65 205.08 4.1 203.93 3.55 202.18 3.28 200.43 3 198.6 2.78 196.78 2.55 195.48 2.05L195.48 2.05Q193.83 1.5 193.03 0.7 192.23-0.1 192.23-1.35L192.23-1.35Q192.23-3.7 195.08-5.1L195.08-5.1Q193.43-5.95 192.6-7.5 191.78-9.05 191.78-10.95L191.78-10.95Q191.78-13.4 193.05-15.55 194.33-17.7 196.85-19.07 199.38-20.45 203.18-20.45L203.18-20.45Q204.88-20.45 206.63-20.13 208.38-19.8 209.55-18.93 210.73-18.05 210.73-16.4L210.73-16.4Q210.73-15.8 210.48-15.08 210.23-14.35 209.53-14.35L209.53-14.35Q209.23-14.35 208.73-14.48 208.23-14.6 207.83-14.7L207.83-14.7Q207.93-14.2 208-13.6 208.08-13 208.08-12.35L208.08-12.35Q208.08-9.4 206.08-7.03 204.08-4.65 200.23-4.2L200.23-4.2Q198.83-4.1 198.15-3.88 197.48-3.65 197.48-3.1L197.48-3.1Q197.48-2.6 198.08-2.38 198.68-2.15 199.63-2.05L199.63-2.05Q202.68-1.8 205.03-1.2 207.38-0.6 208.7 0.73 210.03 2.05 210.03 4.5L210.03 4.5Q210.03 7.35 208.35 9.43 206.68 11.5 203.88 12.65 201.08 13.8 197.78 13.8ZM199.68-8.55L199.68-8.55Q201.98-8.55 203.28-9.8 204.58-11.05 204.58-13.05L204.58-13.05Q204.58-13.6 204.48-14.18 204.38-14.75 204.28-15.15L204.28-15.15Q203.48-15.4 202.73-15.48 201.98-15.55 201.28-15.55L201.28-15.55Q198.63-15.55 197.13-14.55 195.63-13.55 195.63-11.8L195.63-11.8Q195.63-10.25 196.73-9.4 197.83-8.55 199.68-8.55ZM221.38 0.65L221.38 0.65Q217.57 0.65 215.45-1.53 213.32-3.7 213.32-7.6L213.32-7.6Q213.32-11.15 214.88-14.05 216.43-16.95 219.05-18.68 221.68-20.4 224.82-20.4L224.82-20.4Q227.82-20.4 229.63-18.93 231.43-17.45 231.43-15L231.43-15Q231.43-13.05 230.22-11.4 229.03-9.75 227.03-8.78 225.03-7.8 222.57-7.8L222.57-7.8Q219.57-7.8 217.68-9.15L217.68-9.15Q217.72-6.85 219.25-5.45 220.78-4.05 223.18-4.05L223.18-4.05Q224.63-4.05 226.15-4.58 227.68-5.1 228.78-6L228.78-6Q229.47-6.6 230.07-6.6L230.07-6.6Q230.57-6.6 230.9-6.28 231.22-5.95 231.22-5.45L231.22-5.45Q231.22-4.35 229.32-2.55L229.32-2.55Q225.97 0.65 221.38 0.65ZM222.13-11.1L222.13-11.1Q223.93-11.1 225.13-11.85 226.32-12.6 226.32-13.75L226.32-13.75Q226.32-14.7 225.53-15.23 224.72-15.75 223.32-15.75L223.32-15.75Q221.47-15.75 220.1-14.78 218.72-13.8 218.13-12.05L218.13-12.05Q218.82-11.6 219.93-11.35 221.03-11.1 222.13-11.1Z" opacity="1" transform="matrix(1,0,0,1,0,0)" fill="#72693e" class="wordmark-text-0" data-fill-palette-color="primary" id="text-0"></path></svg></g></svg></g></svg></g></svg></g><g transform="matrix(1,0,0,1,145.61060402228838,0)"><svg viewBox="0 0 104.29879195542318 110.06103287958115" height="110.06103287958115" width="104.29879195542318"><g><svg xmlns="http://www.w3.org/2000/svg" xmlns:xlink="http://www.w3.org/1999/xlink" version="1.1" x="0" y="0" viewBox="5.93917499276149 6.5 82.1608250072385 86.7" style="enable-background:new 0 0 100 100;" xml:space="preserve" height="110.06103287958115" width="104.29879195542318" class="icon-icon-0" data-fill-palette-color="accent" id="icon-0"><g fill="#72693e" data-fill-palette-color="accent"><g fill="#72693e" data-fill-palette-color="accent"><g fill="#72693e" data-fill-palette-color="accent"><g fill="#72693e" data-fill-palette-color="accent"><g fill="#72693e" data-fill-palette-color="accent"><path class="" d="M65.2 41.7C64.8 41.7 64.4 41.5 64.2 41.2L58.9 35.9 55.8 47.9 69.2 52.2H69.3C69.4 52.2 69.4 52.2 69.5 52.3 69.6 52.3 69.6 52.4 69.7 52.4L69.8 52.5 69.9 52.6 70.1 52.9S70.1 53 70.2 53L70.3 53.4V67.6C70.3 68.3 69.7 68.9 69 68.9H63.5C62.8 68.9 62.2 68.3 62.2 67.6V60L40.2 52.1 39.8 52C39.4 51.7 39.1 51.2 39.2 50.7V50.5L41.9 33.2 33.4 37.4 30.2 46.8C30 47.5 29.3 47.8 28.6 47.6L24.9 46.3C24.2 46.1 23.9 45.4 24.1 44.7L28.7 31.3C28.8 30.9 29.1 30.6 29.5 30.5 29.6 30.4 29.7 30.4 29.8 30.3L44 23.4C44.2 23.3 44.4 23.3 44.6 23.3H44.8L59.5 25.6C59.6 25.6 59.7 25.6 59.8 25.7H59.9C60 25.8 60.2 25.8 60.3 25.9L70.2 35.8 70.3 35.9H77.4C78.1 35.9 78.7 36.5 78.7 37.2V40.6C78.7 41.3 78.1 41.9 77.4 41.9H65.2z" fill="#72693e" data-fill-palette-color="accent"></path><path class="" d="M88.1 73.9V76.5C88.1 77 87.7 77.4 87.2 77.4H62.8C62.3 77.4 61.9 77 61.9 76.5V73.9C61.9 73.4 62.3 73 62.8 73H87.1C87.7 73 88.1 73.4 88.1 73.9" fill="#72693e" data-fill-palette-color="accent"></path><path class="" d="M74.4 81.6V84.2C74.4 84.7 74 85.1 73.5 85.1H49.2C48.7 85.1 48.3 84.7 48.3 84.2V81.6C48.3 81.1 48.7 80.7 49.2 80.7H73.5C74 80.7 74.4 81.1 74.4 81.6" fill="#72693e" data-fill-palette-color="accent"></path><path class="" d="M60.8 89.7V92.3C60.8 92.8 60.4 93.2 59.9 93.2H35.6C35.1 93.2 34.7 92.8 34.7 92.3V89.7C34.7 89.2 35.1 88.8 35.6 88.8H59.9C60.4 88.8 60.8 89.2 60.8 89.7" fill="#72693e" data-fill-palette-color="accent"></path><path class="" d="M53.8 6.5C58 6.5 61.4 9.9 61.4 14.1S58 21.7 53.8 21.7 46.2 18.3 46.2 14.1C46.2 10 49.6 6.5 53.8 6.5" fill="#72693e" data-fill-palette-color="accent"></path><path class="" d="M51.9 59.8L49.4 71.2C49.4 71.3 49.3 71.5 49.2 71.6V71.7L49.1 71.8 40.5 82.8C40.1 83.3 39.3 83.4 38.7 83L34.5 79.6C34 79.2 33.9 78.4 34.3 77.8L39.9 70.6 42.9 56.5z" fill="#72693e" data-fill-palette-color="accent"></path><path class="" d="M36.9 57.3C37.6 57.5 37.9 58.3 37.7 58.9L32.9 72C32.7 72.7 31.9 73 31.3 72.8L6.8 63.9C6.1 63.7 5.8 62.9 6 62.3L10.8 49.1C11 48.4 11.8 48.1 12.4 48.3z" fill="#72693e" data-fill-palette-color="accent"></path><path class="" d="M21.5 46.6L30.8 50C31 50.1 31.2 50.3 31.1 50.6L30.3 52.8C30.2 53 29.9 53.2 29.7 53.1L20.4 49.7C20.2 49.6 20 49.4 20.1 49.1L20.9 46.9C21.1 46.6 21.3 46.5 21.5 46.6" fill="#72693e" data-fill-palette-color="accent"></path></g></g></g></g></g></svg></g></svg></g><g></g></svg></g><defs></defs></svg><rect width="395.52" height="208.5008311991623" fill="none" stroke="none" visibility="hidden"></rect></g></svg></g></svg>